<svg xmlns="http://www.w3.org/2000/svg" viewBox="0 0 800 360" width="800" height="360" role="img" aria-label="Alacakaranlıkta uçan ejderha silüeti">
  <defs>
    
    <linearGradient id="e-gok2" x1="0" y1="0" x2="0" y2="1">
      <stop offset="0" stop-color="#241020"/><stop offset="0.42" stop-color="#6E2B26"/><stop offset="0.72" stop-color="#B66D38"/><stop offset="1" stop-color="#E9B571"/>
    </linearGradient>
    <radialGradient id="e-gunes" cx="0.5" cy="0.5" r="0.5">
      <stop offset="0" stop-color="#FFE0A8" stop-opacity="0.95"/><stop offset="1" stop-color="#E08A3C" stop-opacity="0"/>
    </radialGradient>
  </defs>

  <rect width="800" height="360" fill="url(#e-gok2)"/>
  <circle cx="600" cy="286" r="150" fill="url(#e-gunes)"/>
  <circle cx="600" cy="286" r="52" fill="#FFCE86" opacity="0.75"/>

  <!-- Uzak bulut şeritleri -->
  <g fill="#3A1A20" opacity="0.45">
    <ellipse cx="180" cy="150" rx="150" ry="12"/>
    <ellipse cx="520" cy="120" rx="120" ry="9"/>
    <ellipse cx="700" cy="190" rx="130" ry="10"/>
    <ellipse cx="300" cy="216" rx="170" ry="11"/>
  </g>

  <!-- Uzak dağ sırtı -->
  <path d="M0 300l90-52 60 32 74-58 66 44 80-64 72 52 84-40 96 62 78-30v114H0z" fill="#20101A" opacity="0.9"/>

  <!-- Ejderha: kanatları açık, sağa doğru süzülüyor -->
  <g transform="translate(330,168) scale(0.95)" fill="#170A12">
    <!-- gövde ve kuyruk -->
    <path d="M-16 6c26-8 52-6 74 6 16 9 28 10 42 4 10-4 18-2 22 4-8 0-14 2-18 8-14 18-40 24-64 16-22-8-42-12-56-8-10 3-18 0-22-8 6-8 14-14 22-22z"/>
    <path d="M96 20c26 6 48 22 62 44-18-14-38-22-58-24 0-7-2-14-4-20z"/>
    <!-- baş -->
    <path d="M-16 6c-14-2-26-10-32-22 8 2 16 2 22-2-8-6-10-16-4-24 4 10 12 14 22 12 14-2 24 6 26 20 1 8-2 14-8 18-8 4-18 2-26-2z"/>
    <path d="M-46 -30l-16-6 14-6z"/>
    <!-- boynuzlar -->
    <path d="M-8 -34c8-10 18-14 30-12-10 4-16 10-20 18z"/>
    <path d="M2 -28c9-8 19-10 30-6-10 2-17 7-21 14z" opacity="0.9"/>
    <!-- üst kanat -->
    <path d="M4 -2C-16-44-58-70-112-78c30 30 44 62 46 96 22-14 46-20 70-20z"/>
    <path d="M-2 -6c-18-32-48-54-88-64" stroke="#2E1420" stroke-width="2.5" fill="none"/>
    <path d="M-14 4c-12-24-32-42-62-54" stroke="#2E1420" stroke-width="2" fill="none" opacity="0.8"/>
    <!-- alt kanat -->
    <path d="M22 16C10 56-14 86-56 104c40 2 74-8 100-30-12-16-19-36-22-58z"/>
    <path d="M20 22C10 54-10 78-44 94" stroke="#2E1420" stroke-width="2.2" fill="none"/>
  </g>
  <circle cx="299" cy="147" r="2.6" fill="#FFCE86"/>

  <!-- Ön sırt -->
  <path d="M0 330l120-24 110 18 150-30 140 26 130-22 150 24v38H0z" fill="#150A12"/>
</svg>
